<?xml version="1.0" encoding="utf-8"?>
<!-- Svg Vector Icons : http://www.onlinewebfonts.com/icon -->
<!DOCTYPE svg PUBLIC "-//W3C//DTD SVG 1.1//EN" "http://www.w3.org/Graphics/SVG/1.1/DTD/svg11.dtd">
<svg version="1.1" xmlns="http://www.w3.org/2000/svg" xmlns:xlink="http://www.w3.org/1999/xlink" x="0px" y="0px" viewBox="0 0 256 256" enable-background="new 0 0 256 256" xml:space="preserve">
<metadata> Svg Vector Icons : http://www.onlinewebfonts.com/icon </metadata>
<g><g><g><path fill="#9CA3AF" d="M135.1,10.6c-0.9,0.3-3.9,1.8-6.7,3.2c-6.4,3.3-10.9,4.7-19.6,6.2c-3.8,0.7-8,1.6-9.4,2.1c-3.6,1.4-7.7,3.9-10.5,6.7c-2.4,2.3-6.7,8.3-7.3,10.1c-0.2,0.5-0.5,0.9-0.7,0.9c-0.2,0-1.9-1.3-3.8-2.8l-3.4-2.8l-1.1,2.9c-3,8-5.2,25-5.2,41c0,4.9-0.2,7-0.9,9.2c-2,6.2-3.7,21.5-3.8,32.6v3.8l-3.1,1.5c-5.7,2.8-10.7,8.4-13.2,14.9c-1.3,3.5-1.8,10.9-0.9,14.9c1.9,9.2,9.8,17.6,18.8,20.2c1.5,0.4,2.8,1,2.9,1.3c1.5,4.5,4.1,10.9,6.1,15c1.4,2.8,3.1,7.3,4,10c7.1,23.2,20.5,38,38.4,42.8c11.6,3,25.1,2.3,35-2c16.2-7,26.9-21,33.5-44.1c0.8-2.7,2.6-7.5,4-10.7c1.4-3.2,3-7.3,3.5-9.1l1-3.3l3.6-1.7c6.3-3,10.9-8.1,13.7-15.1c0.9-2.5,1.1-3.5,1.1-9.1c0-5.7-0.1-6.6-1.2-9.4c-2.3-5.7-6.6-11-11.2-13.6l-1.8-1v-3.5c0-11.2-1.5-25.3-3.5-33.1c-1.1-4-1.2-5.6-1.3-14.3c-0.1-7.9-0.3-10.8-1.2-14.9c-2-9.8-5.7-18.3-11.1-25c-3.1-3.9-8.5-8.8-10.4-9.2c-0.6-0.1-2.1,0.2-3.4,0.7c-2.8,1.2-5.9,1.7-8.1,1.3c-1.4-0.3-2.1-1-4.8-4.4c-4.3-5.6-8.9-10-11.9-11.5C138.4,9.8,137.5,9.7,135.1,10.6z M121.9,40.5c14.2,7,25.9,17.3,33.2,29.4l2.2,3.7l2.1-0.3c3.7-0.6,4.7-0.2,14.8,4.4l6.1,2.8l1.4,3.3c3.1,6.9,4.9,17,5.5,31.5l0.3,7.9l-2.8-0.4c-1.5-0.2-8.1-0.5-14.7-0.7c-13.4-0.4-20.5,0.1-29.8,2c-7,1.4-15.5,1.5-18.6,0.4c-6.3-2.2-21.6-3.8-31.8-3.3c-6.6,0.3-14.9,1.1-16.8,1.5l-1.1,0.2l0.3-7.8c0.7-17.5,3.1-28.5,7.8-36.3c1.4-2.3,1.7-2.6,4.8-3.6c2.6-0.8,4.3-1.1,7.8-1.1c5.3,0,7.7,0.7,16.3,4.4c7.8,3.4,11.1,4.3,14.9,4.3c2.8,0,7.4-0.7,8.8-1.5c0.9-0.5-6.4-6.7-13.3-11.2c-3.1-2.1-6.4-4.3-7.3-4.9c-1.5-1-1.8-1.4-1.8-2.9c0-2.2,1.5-3.9,3.4-3.9c3.5,0,19.2,11.1,25.3,17.8l2.2,2.4l4-1.4c2.2-0.8,4.1-1.5,4.2-1.7c0.5-0.8-6-9.4-10.5-14c-5.7-5.7-12.2-10.2-20.7-14.5c-5.5-2.8-6.4-3.6-6.4-5.8c0-1.1,2.6-3.5,3.8-3.5C116.2,37.9,119.1,39.1,121.9,40.5z M111.1,131.5c6.7,1.3,7.8,1.6,7.4,2.8c-0.6,2.2-3.5,8.5-5,10.9c-2.4,4-4.5,5-10.6,5.2c-3.1,0.1-6.4-0.1-9.1-0.6c-3.9-0.7-4.3-0.9-5.9-2.6c-2.3-2.4-4.1-8.8-4.1-14.4c0-1.9,0.1-2,1.5-2.1C88.9,130.2,107,130.8,111.1,131.5z M171.3,131.2l3.6,0.3l-0.3,3.1c-0.7,7.1-2.4,11.8-5,13.7c-1.6,1.2-7.6,2.2-13.1,2.2c-7.1,0-9.5-1.3-12.4-6.4c-2.2-4-4.6-10-4.1-10.5c0.6-0.6,8.6-1.8,14.3-2.2C161.4,130.9,166.9,130.8,171.3,131.2z M72.6,132.2c1.1,0.5,1.2,0.7,1.5,4.4c0.7,10.1,4.6,17.5,10.7,20.4c6.1,2.9,20.9,3.7,27.2,1.5c3.5-1.3,6.8-3.6,8.9-6.5c2.1-2.9,5.5-9.8,6.8-14c0.6-1.9,1.3-3.3,1.5-3.2c0.2,0,1,1.8,1.7,3.9c1.9,5.5,5.8,12.8,8.4,15.4c2.5,2.5,6.6,4.6,10.6,5.4c6.1,1.1,19.3-0.2,23.9-2.4c5.8-2.8,9.9-10.8,10.7-21l0.3-3.6l2.1-0.2c4.6-0.5,10.7,3.8,13.5,9.4c1.2,2.4,1.3,3.1,1.3,7.6s-0.1,5.2-1.3,7.6c-2.5,5.1-7.2,8.7-12.7,9.8l-2.5,0.5l-0.7,2.4c-0.4,1.3-1.2,2.8-1.7,3.3c-1.5,1.3-9.3,11.2-14,17.6c-2.2,3-4.1,5.5-4.3,5.5c-0.1,0-0.9-1-1.8-2.3c-6.5-10-22-15.8-38-14.2c-13.4,1.4-22.4,6.3-28.4,15.5c-0.7,1.1-0.8,1-7.6-7.9c-3.7-5-8.3-10.8-10.2-12.9c-1.8-2.1-3.5-4.6-3.8-5.4c-0.4-1.5-0.4-1.5-4-1.8c-6.6-0.5-12.1-4.2-15-10c-1.2-2.4-1.3-3.1-1.3-7.6c0-4.4,0.1-5.2,1.3-7.6c2.2-4.6,6.1-7.8,11.3-9.5C69.1,131.4,70.5,131.4,72.6,132.2z M139.6,199.7c2.8,0.9,6.5,1.9,8.3,2.2c1.7,0.3,3.1,0.7,3.1,0.9c0,0.5-4.8,1.7-10,2.6c-6,1-15.4,1-21.6,0c-5.1-0.8-9.9-2.1-9.9-2.6c0-0.2,2.5-0.9,5.6-1.7c5.8-1.4,11.6-3.6,13.7-5.3l1.3-0.9l2.2,1.5C133.5,197.3,136.8,198.8,139.6,199.7z"/></g></g></g>
</svg>